<svg xmlns="http://www.w3.org/2000/svg" width="512" height="512" viewBox="0 0 512 512" fill="#777"><rect x="32" y="384" width="272" height="32"/><rect x="400" y="384" width="80" height="32"/><path d="M384 447.5c0 17.9-14.3 32.5-32 32.5l0 0c-17.7 0-32-14.6-32-32.5v-95c0-17.9 14.3-32.5 32-32.5l0 0c17.7 0 32 14.6 32 32.5V447.5z"/><rect x="32" y="240" width="80" height="32"/><rect x="208" y="240" width="272" height="32"/><path d="M192 303.5c0 17.9-14.3 32.5-32 32.5l0 0c-17.7 0-32-14.6-32-32.5v-95c0-17.9 14.3-32.5 32-32.5l0 0c17.7 0 32 14.6 32 32.5V303.5z"/><rect x="32" y="96" width="272" height="32"/><rect x="400" y="96" width="80" height="32"/><path d="M384 159.5c0 17.9-14.3 32.5-32 32.5l0 0c-17.7 0-32-14.6-32-32.5v-95c0-17.9 14.3-32.5 32-32.5l0 0c17.7 0 32 14.6 32 32.5V159.5z"/></svg>