<svg xmlns="http://www.w3.org/2000/svg" width="512" height="512" viewBox="0 0 512 512" fill="#777"><path d="M32 384h272v32H32zM400 384h80v32h-80zM384 447.5c0 17.9-14.3 32.5-32 32.5s-32-14.6-32-32.5v-95c0-17.9 14.3-32.5 32-32.5s32 14.6 32 32.5v95zM32 240h80v32H32zM208 240h272v32H208zM192 303.5c0 17.9-14.3 32.5-32 32.5s-32-14.6-32-32.5v-95c0-17.9 14.3-32.5 32-32.5s32 14.6 32 32.5v95zM32 96h272v32H32zM400 96h80v32h-80zM384 159.5c0 17.9-14.3 32.5-32 32.5s-32-14.6-32-32.5v-95c0-17.9 14.3-32.5 32-32.5s32 14.6 32 32.5v95z"/></svg>