<svg xmlns="http://www.w3.org/2000/svg" width="512" height="512" viewBox="0 0 512 512" fill="#3c763d"><path d="M461.6 109.6l-54.9-43.3c-1.7-1.4-3.8-2.4-6.2-2.4 -2.4 0-4.6 1-6.3 2.5L194.5 323c0 0-78.5-75.5-80.7-77.7 -2.2-2.2-5.1-5.9-9.5-5.9 -4.4 0-6.4 3.1-8.7 5.4 -1.7 1.8-29.7 31.2-43.5 45.8 -0.8 0.9-1.3 1.4-2 2.1 -1.2 1.7-2 3.6-2 5.7 0 2.2 0.8 4 2 5.7l2.8 2.6c0 0 139.3 133.8 141.6 136.1 2.3 2.3 5.1 5.2 9.2 5.2 4 0 7.3-4.3 9.2-6.2L462 121.8c1.2-1.7 2-3.6 2-5.8C464 113.5 463 111.4 461.6 109.6z"/></svg>