<svg xmlns="http://www.w3.org/2000/svg" width="512" height="512" viewBox="0 0 512 512" fill="white"><path d="M331 284.1c6.5-6.5 6.5-17 0-23.4 -6.5-6.5-17.3-6.5-23.8 0L272 295.4V176.6c0-9.2-6.8-16.6-16-16.6 -9.2 0-16 7.4-16 16.6v118.9l-35-34.7c-6.5-6.5-17.1-6.5-23.6 0 -6.5 6.5-6.5 17-0.1 23.4l63.1 63c0 0 0 0 0.1 0.1 0.7 0.7 1.5 1.4 2.4 1.9 0.1 0.1 0.2 0.1 0.3 0.2 0.3 0.2 0.7 0.4 1 0.6 0.1 0.1 0.2 0.1 0.4 0.2 0.4 0.2 0.8 0.4 1.3 0.6 0 0 0 0 0 0 0.4 0.2 0.8 0.3 1.2 0.4 0.1 0 0.2 0.1 0.3 0.1 0.2 0 0.3 0.1 0.5 0.1 1.4 0.4 2.9 0.6 4.3 0.6 1.4 0 2.9-0.2 4.3-0.6 0.2 0 0.3-0.1 0.5-0.1 0.1 0 0.2-0.1 0.3-0.1 0.4-0.1 0.8-0.3 1.2-0.4 0 0 0 0 0 0 0.4-0.2 0.9-0.4 1.3-0.6 0.1-0.1 0.2-0.1 0.4-0.2 0.3-0.2 0.7-0.4 1-0.6 0.1-0.1 0.2-0.1 0.3-0.2 0.4-0.3 0.8-0.6 1.2-0.9 0 0 0 0 0 0 0.4-0.3 0.8-0.7 1.2-1.1 0 0 0.1 0 0.1-0.1L331 284.1z"/><path d="M168 392c-6.1 0-12.3-2.3-17-7l-112-112c-9.4-9.4-9.4-24.6 0-33.9l112-112c9.4-9.4 24.6-9.4 33.9 0 9.4 9.4 9.4 24.6 0 33.9L89.9 256l95 95c9.4 9.4 9.4 24.6 0 33.9C180.3 389.7 174.1 392 168 392z"/><path d="M344 392c6.1 0 12.3-2.3 17-7l112-112c9.4-9.4 9.4-24.6 0-33.9l-112-112c-9.4-9.4-24.6-9.4-33.9 0 -9.4 9.4-9.4 24.6 0 33.9L422.1 256l-95 95c-9.4 9.4-9.4 24.6 0 33.9C331.7 389.7 337.9 392 344 392z"/></svg>