<svg xmlns="http://www.w3.org/2000/svg" width="512" height="512" viewBox="0 0 512 512" fill="#fff"><path d="M331 284.1c6.5-6.5 6.5-17 0-23.4-6.5-6.5-17.3-6.5-23.8 0L272 295.4V176.6c0-9.2-6.8-16.6-16-16.6s-16 7.4-16 16.6v118.9l-35-34.7c-6.5-6.5-17.1-6.5-23.6 0s-6.5 17-.1 23.4l63.1 63 .1.1c.7.7 1.5 1.4 2.4 1.9.1.1.2.1.3.2.3.2.7.4 1 .6.1.1.2.1.4.2.4.2.8.4 1.3.6.4.2.8.3 1.2.4.1 0 .2.1.3.1.2 0 .3.1.5.1 1.4.4 2.9.6 4.3.6s2.9-.2 4.3-.6c.2 0 .3-.1.5-.1.1 0 .2-.1.3-.1.4-.1.8-.3 1.2-.4.4-.2.9-.4 1.3-.6.1-.1.2-.1.4-.2.3-.2.7-.4 1-.6.1-.1.2-.1.3-.2l1.2-.9c.4-.3.8-.7 1.2-1.1 0 0 .1 0 .1-.1l63-63z"/><path d="M168 392c-6.1 0-12.3-2.3-17-7L39 273c-9.4-9.4-9.4-24.6 0-33.9l112-112c9.4-9.4 24.6-9.4 33.9 0 9.4 9.4 9.4 24.6 0 33.9l-95 95 95 95c9.4 9.4 9.4 24.6 0 33.9-4.6 4.8-10.8 7.1-16.9 7.1zM344 392c6.1 0 12.3-2.3 17-7l112-112c9.4-9.4 9.4-24.6 0-33.9l-112-112c-9.4-9.4-24.6-9.4-33.9 0-9.4 9.4-9.4 24.6 0 33.9l95 95-95 95c-9.4 9.4-9.4 24.6 0 33.9 4.6 4.8 10.8 7.1 16.9 7.1z"/></svg>